<svg xmlns="http://www.w3.org/2000/svg" version="1.1" xmlns:xlink="http://www.w3.org/1999/xlink" xmlns:svgjs="http://svgjs.dev/svgjs" width="2000" height="1500" viewBox="0 0 2000 1500"><rect width="2000" height="1500" fill="#000000"></rect><g transform="matrix(0.44543429844098,0,0,0.44543429844098,555.3925786166321,250.40603305697823)"><svg viewBox="0 0 220 247" data-background-color="#000000" preserveAspectRatio="xMidYMid meet" height="2245" width="2000" xmlns="http://www.w3.org/2000/svg" xmlns:xlink="http://www.w3.org/1999/xlink"><g id="tight-bounds" transform="matrix(1,0,0,1,-0.20419728937730497,-0.10007915888590446)"><svg viewBox="0 0 220.4083945787546 247.2" height="247.2" width="220.4083945787546"><rect width="220.4083945787546" height="247.20036932395953" fill="url(#8f8de20c-9edc-4631-ba4d-510b18e41dce)" mask="url(#b95f7209-158f-4bad-b2af-af99ea1f88dd)" data-fill-palette-color="tertiary"></rect><g><svg viewBox="0 0 220.4083945787546 247.2" height="247.2" width="220.4083945787546"><g><svg viewBox="0 0 220.4083945787546 247.2" height="247.2" width="220.4083945787546"><g id="textblocktransform"><svg viewBox="0 0 220.4083945787546 247.2" height="247.2" width="220.4083945787546" id="textblock"><g><svg viewBox="0 0 220.4083945787546 247.2" height="247.2" width="220.4083945787546"><path d="M219.892 53.02C218.856 27.36 215.903 20.227 215.903 20.227 206.836-6.202 195.521-0.506 185.356 3.292 167.409 3.446 149.535 9.091 131.63 12.119 94.047 12.581 56.144 4.986 18.748 23.717 15.235 29.464-3.644 24.846 0.625 56.304 1.744 69.39 5.826 83.913 5.702 95.922 6.262 98.026 7.039 93.202 7.37 96.23 8.531 104.39 10.427 100.541 11.981 105.365 9.816 118.246 11.37 128.971 12.852 140.21 10.241 143.135 6.894 141.749 5.391 151.449 5.236 158.479 4.397 157.145 3.474 156.837 2.801 156.632 1.443 157.402 1.671 159.608 2.449 167.152-0.888 171.514 1.205 178.904-0.235 186.91 2.2 193.838 1.868 202.511 1.827 204.255 2.055 205.744 2.417 206.154 4.024 208.361 1.682 212.672 1.93 217.342 18.406 249.262 36.28 227.195 53.16 241.872 57.543 231.608 54.247 245.516 55.999 243.36 57.366 240.846 58.361 251.263 59.905 245.362 60.143 243.668 59.781 239.665 60.63 240.435 61.076 240.846 61.47 240.743 61.532 238.382 61.625 234.841 60.807 237.048 60.589 235.201 62.941 225.861 62.361 248.081 64.568 247.158 64.464 244.438 63.822 240.538 65.138 241.051 66.443 237.151 66.485 233.918 67.645 242.693 67.687 244.592 67.894 245.926 68.226 246.85 71.852 237.305 75.458 250.237 79.261 245.926 81.592 241.205 83.831 248.492 86.193 246.696 87.022 245.259 87.861 242.693 88.659 247.004 98.431 247.928 108.844 244.079 118.108 247.158 142.862 241.41 169.316 249.518 195.418 241.923 201.573 238.998 207.966 234.841 213.965 231.506 213.965 231.506 218.825 222.371 218.825 181.316S219.861 145.393 220.017 112.703C220.172 80.013 220.897 78.679 219.861 53.02Z" opacity="1" fill="url(#8f8de20c-9edc-4631-ba4d-510b18e41dce)" data-fill-palette-color="tertiary"></path><g transform="matrix(1,0,0,1,55.76832,26.230666666666668)"><svg width="108.87175457875459" viewBox="3.45 -35.7 20.35 36.400000000000006" height="194.73866666666666" data-palette-color="#000000"><path d="M3.45-1.1L3.45-1.1 3.75-4.1 4.05-4.1Q6-2.4 8.45-1.45 10.9-0.5 13.3-0.5L13.3-0.5Q16.7-0.5 18.8-2.38 20.9-4.25 20.9-7.4L20.9-7.4Q20.9-9.15 20.13-10.65 19.35-12.15 17.57-13.7 15.8-15.25 12.7-17.05L12.7-17.05Q10.55-18.3 8.6-19.68 6.65-21.05 5.4-22.88 4.15-24.7 4.15-27.25L4.15-27.25Q4.15-31.05 6.9-33.38 9.65-35.7 14.15-35.7L14.15-35.7Q16.15-35.7 18.45-35.27 20.75-34.85 22-34.2L22-34.2 21.75-31.4 21.45-31.4Q18.6-34.5 14.15-34.5L14.15-34.5Q10.95-34.5 9-32.88 7.05-31.25 7.05-28.5L7.05-28.5Q7.05-26.45 8.13-24.98 9.2-23.5 10.9-22.33 12.6-21.15 14.55-20.05L14.55-20.05Q16.8-18.75 18.93-17.3 21.05-15.85 22.43-13.83 23.8-11.8 23.8-8.75L23.8-8.75Q23.8-5.95 22.5-3.83 21.2-1.7 18.82-0.5 16.45 0.7 13.3 0.7L13.3 0.7Q11.3 0.7 8.6 0.2 5.9-0.3 3.45-1.1Z" opacity="1" transform="matrix(1,0,0,1,0,0)" fill="#000000" class="wordmark-text-0" data-fill-palette-color="quaternary" id="text-0"></path></svg></g></svg></g></svg></g></svg></g></svg></g><defs></defs><mask id="b95f7209-158f-4bad-b2af-af99ea1f88dd"><g id="SvgjsG1227"><svg viewBox="0 0 220.4083945787546 247.2" height="247.2" width="220.4083945787546"><g><svg viewBox="0 0 220.4083945787546 247.2" height="247.2" width="220.4083945787546"><g><svg viewBox="0 0 220.4083945787546 247.2" height="247.2" width="220.4083945787546"><g id="SvgjsG1226"><svg viewBox="0 0 220.4083945787546 247.2" height="247.2" width="220.4083945787546" id="SvgjsSvg1225"><g><svg viewBox="0 0 220.4083945787546 247.2" height="247.2" width="220.4083945787546"><path d="M219.892 53.02C218.856 27.36 215.903 20.227 215.903 20.227 206.836-6.202 195.521-0.506 185.356 3.292 167.409 3.446 149.535 9.091 131.63 12.119 94.047 12.581 56.144 4.986 18.748 23.717 15.235 29.464-3.644 24.846 0.625 56.304 1.744 69.39 5.826 83.913 5.702 95.922 6.262 98.026 7.039 93.202 7.37 96.23 8.531 104.39 10.427 100.541 11.981 105.365 9.816 118.246 11.37 128.971 12.852 140.21 10.241 143.135 6.894 141.749 5.391 151.449 5.236 158.479 4.397 157.145 3.474 156.837 2.801 156.632 1.443 157.402 1.671 159.608 2.449 167.152-0.888 171.514 1.205 178.904-0.235 186.91 2.2 193.838 1.868 202.511 1.827 204.255 2.055 205.744 2.417 206.154 4.024 208.361 1.682 212.672 1.93 217.342 18.406 249.262 36.28 227.195 53.16 241.872 57.543 231.608 54.247 245.516 55.999 243.36 57.366 240.846 58.361 251.263 59.905 245.362 60.143 243.668 59.781 239.665 60.63 240.435 61.076 240.846 61.47 240.743 61.532 238.382 61.625 234.841 60.807 237.048 60.589 235.201 62.941 225.861 62.361 248.081 64.568 247.158 64.464 244.438 63.822 240.538 65.138 241.051 66.443 237.151 66.485 233.918 67.645 242.693 67.687 244.592 67.894 245.926 68.226 246.85 71.852 237.305 75.458 250.237 79.261 245.926 81.592 241.205 83.831 248.492 86.193 246.696 87.022 245.259 87.861 242.693 88.659 247.004 98.431 247.928 108.844 244.079 118.108 247.158 142.862 241.41 169.316 249.518 195.418 241.923 201.573 238.998 207.966 234.841 213.965 231.506 213.965 231.506 218.825 222.371 218.825 181.316S219.861 145.393 220.017 112.703C220.172 80.013 220.897 78.679 219.861 53.02Z" opacity="1" fill="white"></path><g transform="matrix(1,0,0,1,55.76832,26.230666666666668)"><svg width="108.87175457875459" viewBox="3.45 -35.7 20.35 36.400000000000006" height="194.73866666666666" data-palette-color="#000000"><path d="M3.45-1.1L3.45-1.1 3.75-4.1 4.05-4.1Q6-2.4 8.45-1.45 10.9-0.5 13.3-0.5L13.3-0.5Q16.7-0.5 18.8-2.38 20.9-4.25 20.9-7.4L20.9-7.4Q20.9-9.15 20.13-10.65 19.35-12.15 17.57-13.7 15.8-15.25 12.7-17.05L12.7-17.05Q10.55-18.3 8.6-19.68 6.65-21.05 5.4-22.88 4.15-24.7 4.15-27.25L4.15-27.25Q4.15-31.05 6.9-33.38 9.65-35.7 14.15-35.7L14.15-35.7Q16.15-35.7 18.45-35.27 20.75-34.85 22-34.2L22-34.2 21.75-31.4 21.45-31.4Q18.6-34.5 14.15-34.5L14.15-34.5Q10.95-34.5 9-32.88 7.05-31.25 7.05-28.5L7.05-28.5Q7.05-26.45 8.13-24.98 9.2-23.5 10.9-22.33 12.6-21.15 14.55-20.05L14.55-20.05Q16.8-18.75 18.93-17.3 21.05-15.85 22.43-13.83 23.8-11.8 23.8-8.75L23.8-8.75Q23.8-5.95 22.5-3.83 21.2-1.7 18.82-0.5 16.45 0.7 13.3 0.7L13.3 0.7Q11.3 0.7 8.6 0.2 5.9-0.3 3.45-1.1Z" opacity="1" transform="matrix(1,0,0,1,0,0)" fill="black" class="wordmark-text-0" id="SvgjsPath1224"></path></svg></g></svg></g></svg></g></svg></g></svg></g><defs><mask></mask></defs></svg><rect width="220.4083945787546" height="247.2" fill="black" stroke="none" visibility="hidden"></rect></g></mask><linearGradient x1="0" x2="1" y1="0.578" y2="0.595" id="8f8de20c-9edc-4631-ba4d-510b18e41dce"><stop stop-color="#6ee2f5" offset="0"></stop><stop stop-color="#6454f0" offset="1"></stop></linearGradient></svg><rect width="220.4083945787546" height="247.2" fill="none" stroke="none" visibility="hidden"></rect></g></svg></g></svg>